<svg xmlns="http://www.w3.org/2000/svg" height="48" width="48">
  <path d="M16 41v-1c0-4 2-7 11-7 3 0 4-2 4-3.5S30 26 27 26c-9 0-11-3-14-6h-1" fill="none" stroke="#08519c" stroke-width="2"/>
  <g fill="none">
    <g stroke="#333">
      <path d="M9.5 4.5v39h28v-33l-6-6z"/>
      <path d="M31.5 4.5v6h6"/>
    </g>
    <g stroke="#9ecae1">
      <path d="M23.5 7v34M34.5 18.5h-22M34.5 29.5h-22M29 7.5H12.5M34.5 13.1V41M12.5 7v34M34.5 40.5h-22"/>
    </g>
    <g stroke="#777">
      <path d="M16.5 15v-5M14.5 12l2-2 2 2"/>
    </g>
  </g>
</svg>
